<?xml version="1.0" encoding="UTF-8"?>
<svg width="41px" height="41px" viewBox="0 0 41 41" version="1.1" xmlns="http://www.w3.org/2000/svg" xmlns:xlink="http://www.w3.org/1999/xlink">
    <!-- Generator: Sketch 61.2 (89653) - https://sketch.com -->
    <title>Group 11</title>
    <desc>Created with Sketch.</desc>
    <g id="Page-1" stroke="none" stroke-width="1" fill="none" fill-rule="evenodd">
        <g id="Mobile-Homepage" transform="translate(-183.000000, -12.000000)">
            <g id="Group-11" transform="translate(183.500000, 12.570312)">
                <circle id="Oval-Copy" fill="#FFFFFF" cx="20.075431" cy="20.075431" r="20.075431"></circle>
                <path d="M25.9406783,23.4247496 C25.9406783,23.5763741 25.9127474,23.77721 25.8568858,24.0232672 C25.7996941,24.2706545 25.7398423,24.4635102 25.6773305,24.6058244 C25.557627,24.8904527 25.2118168,25.1897116 24.6399,25.5062609 C24.1065543,25.7962094 23.5811888,25.9411837 23.0584834,25.9411837 C22.9055289,25.9411837 22.7565646,25.9305434 22.6115903,25.9105928 C22.4679461,25.8906422 22.3056813,25.8560612 22.1234659,25.8041896 C21.9412506,25.7536481 21.8082466,25.7124169 21.719134,25.680496 C21.6326815,25.6499051 21.4744068,25.5927134 21.2483002,25.5062609 C21.0208635,25.4224684 20.8812094,25.3705969 20.8306679,25.3533064 C20.2760416,25.1564606 19.779937,24.9210436 19.3436841,24.6483856 C18.6174828,24.2001624 17.8686707,23.5896745 17.0945879,22.8169217 C16.3218352,22.042839 15.7113472,21.2926969 15.263124,20.5678255 C14.990466,20.1302427 14.7550491,19.6341381 14.5568733,19.0795118 C14.5409128,19.0289703 14.4890413,18.8906462 14.4039188,18.6632095 C14.3187963,18.4371028 14.2616046,18.2788282 14.2296836,18.1910456 C14.1990927,18.103263 14.1578615,17.9689291 14.10732,17.7880437 C14.0541185,17.6058284 14.0195375,17.4435636 13.9995869,17.2999194 C13.9809663,17.1536151 13.970326,17.0059807 13.970326,16.8530262 C13.970326,16.3303209 14.1139702,15.8049554 14.4039188,15.2702797 C14.7204681,14.6983628 15.0210569,14.3538827 15.3056853,14.2341792 C15.4466694,14.1716673 15.6408552,14.1118156 15.8869124,14.0546239 C16.1342997,13.9987622 16.3338056,13.9708314 16.4867601,13.9708314 C16.5665624,13.9708314 16.6250841,13.9788117 16.6649853,13.9961022 C16.7673983,14.0306832 16.9176927,14.2461495 17.1158686,14.6411711 C17.1783804,14.7502344 17.2635029,14.9031889 17.3712361,15.1013647 C17.4789693,15.2995405 17.5773921,15.4790958 17.6678348,15.6400305 C17.7596075,15.8036254 17.8473901,15.9539198 17.9325126,16.0949039 C17.9484731,16.1188446 17.9976845,16.1893367 18.081477,16.3077102 C18.1626094,16.4274137 18.2237912,16.5271666 18.2636923,16.6096291 C18.3035935,16.6920915 18.3222141,16.7732239 18.3222141,16.8530262 C18.3222141,16.9660796 18.2424117,17.1070637 18.081477,17.2773087 C17.9192122,17.4475537 17.743647,17.6031683 17.5534514,17.7441525 C17.3645859,17.8864666 17.1876907,18.0367611 17.0267559,18.1950357 C16.8658212,18.3533104 16.7846888,18.4849843 16.7846888,18.5860672 C16.7846888,18.6366087 16.7979892,18.7017806 16.82592,18.7775929 C16.8551809,18.8534051 16.8804516,18.9119268 16.8990722,18.953158 C16.9190228,18.9917292 16.958924,19.0608912 17.0187757,19.156654 C17.0772974,19.2524168 17.1092184,19.3056184 17.1158686,19.3175888 C17.5454712,20.0943316 18.0402458,20.7606812 18.5962021,21.3153075 C19.1508285,21.8712639 19.8171781,22.3647084 20.5925909,22.7943111 C20.6045612,22.8009613 20.6577628,22.8342122 20.7548557,22.892734 C20.8506185,22.9525857 20.9197805,22.9924869 20.9583516,23.0111074 C20.9982528,23.031058 21.0567745,23.0563288 21.1339168,23.0842596 C21.208399,23.1135205 21.2735709,23.1254908 21.3241124,23.1254908 C21.4251954,23.1254908 21.5568693,23.0456885 21.7151439,22.8847537 C21.8734186,22.723819 22.025043,22.5469238 22.1660272,22.3567282 C22.3083414,22.1678626 22.4639559,21.9922975 22.634201,21.8300327 C22.804446,21.669098 22.9454301,21.5879656 23.0584834,21.5879656 C23.1382858,21.5879656 23.2180881,21.6079162 23.3018806,21.6478173 C23.383013,21.6863885 23.4827659,21.7475703 23.6024694,21.8300327 C23.722173,21.9124951 23.792665,21.9617066 23.8152757,21.9789971 C23.9575899,22.0641196 24.1078843,22.1519022 24.2701491,22.2423448 C24.4310838,22.3341175 24.6119692,22.4325404 24.8088149,22.5402736 C25.0083208,22.6480068 25.1612753,22.7317992 25.2690085,22.7943111 C25.6653602,22.9938169 25.8808265,23.1441114 25.9140775,23.2451943 C25.931368,23.2864255 25.9406783,23.3436172 25.9406783,23.4247496" id="Fill-1-Copy" fill="#60C20F"></path>
                <circle id="Oval-5-Copy-7" stroke="#60C20F" stroke-width="3" cx="20.075431" cy="20.075431" r="14.6637931"></circle>
            </g>
        </g>
    </g>
</svg>