<?xml version="1.0" encoding="UTF-8"?>
<svg width="57px" height="57px" viewBox="0 0 57 57" version="1.1" xmlns="http://www.w3.org/2000/svg" xmlns:xlink="http://www.w3.org/1999/xlink">
    <!-- Generator: Sketch 61.2 (89653) - https://sketch.com -->
    <title>Group 4</title>
    <desc>Created with Sketch.</desc>
    <defs>
        <polygon id="path-1" points="0 0.000910641762 21.5678312 0.000910641762 21.5678312 21.5677833 0 21.5677833"></polygon>
    </defs>
    <g id="Page-1" stroke="none" stroke-width="1" fill="none" fill-rule="evenodd">
        <g id="Training-/-Training-Landing-Page" transform="translate(-1302.000000, -66.000000)">
            <g id="Group-4" transform="translate(1303.177822, 67.061134)">
                <g id="Group-3-Copy-2" transform="translate(16.412584, 16.382812)">
                    <mask id="mask-2" fill="white">
                        <use xlink:href="#path-1"></use>
                    </mask>
                    <g id="Clip-2"></g>
                    <path d="M21.5678312,17.0347044 C21.5678312,17.307897 21.5175063,17.6697572 21.4168564,18.113096 C21.3138101,18.5588312 21.2059709,18.9063129 21.0933389,19.1627305 C20.8776606,19.6755655 20.2545899,20.2147613 19.2241269,20.7851106 C18.2631602,21.3075314 17.316572,21.5687418 16.3747767,21.5687418 C16.0991878,21.5687418 15.8307881,21.5495704 15.5695777,21.5136241 C15.3107637,21.4776777 15.0183998,21.4153706 14.6900895,21.32191 C14.3617792,21.2308458 14.1221366,21.1565566 13.9615761,21.0990424 C13.8058084,21.0439246 13.5206337,20.9408783 13.1132414,20.7851106 C12.7034526,20.6341358 12.4518279,20.5406752 12.3607637,20.5095217 C11.3614542,20.1548507 10.4675874,19.7306833 9.68155978,19.2394161 C8.37311136,18.4318206 7.02392369,17.3318612 5.62920394,15.9395379 C4.23688062,14.5448181 3.13692123,13.1932341 2.32932577,11.8871821 C1.8380585,11.098758 1.41389116,10.2048912 1.05682373,9.20558171 C1.02806662,9.11451754 0.934606019,8.86528927 0.781234775,8.45550047 C0.627863531,8.04810811 0.524817226,7.76293345 0.467303009,7.60476935 C0.412185219,7.44660526 0.337896022,7.20456626 0.246831846,6.87865237 C0.150974818,6.55034205 0.0886677505,6.25797812 0.0527213652,5.99916414 C0.0191714055,5.73555732 0,5.46955406 0,5.19396511 C0,4.25216981 0.258813974,3.30558167 0.781234775,2.34221854 C1.35158409,1.31175549 1.89317629,0.69108124 2.40601139,0.475402928 C2.66003251,0.362770921 3.00991067,0.254931765 3.45324942,0.15188546 C3.8989846,0.0512355812 4.25844845,0.000910641762 4.5340374,0.000910641762 C4.67782294,0.000910641762 4.78326568,0.0152891959 4.85515845,0.0464427299 C5.03968322,0.108749798 5.31047933,0.496970759 5.66754675,1.20870919 C5.78017876,1.4052161 5.93355001,1.68080505 6.12766049,2.03787248 C6.32177097,2.39493991 6.49910647,2.71845737 6.66206342,3.00842488 C6.82741679,3.30318524 6.98558088,3.57398134 7.13895213,3.82800247 C7.16770924,3.87113813 7.25637699,3.99814869 7.4073518,4.21143058 C7.55353377,4.42710889 7.66376935,4.60684082 7.73566212,4.75541921 C7.80755489,4.9039976 7.84110485,5.05017957 7.84110485,5.19396511 C7.84110485,5.39766129 7.69731931,5.65168242 7.4073518,5.9584249 C7.11498787,6.26516739 6.79865968,6.5455492 6.45597081,6.79957032 C6.11567836,7.05598787 5.79695374,7.32678397 5.50698623,7.61195863 C5.21701872,7.89713329 5.07083676,8.13437943 5.07083676,8.31650778 C5.07083676,8.40757196 5.09480101,8.52499682 5.14512595,8.66159308 C5.19784732,8.79818935 5.24337941,8.90363208 5.27692937,8.97792127 C5.31287575,9.04741762 5.38476852,9.17203175 5.49260768,9.3445744 C5.59805041,9.51711705 5.65556463,9.61297408 5.66754675,9.63454191 C6.44159225,11.0340545 7.33306261,12.2346638 8.33476855,13.2339733 C9.33407806,14.2356792 10.5346873,15.1247532 11.9318035,15.8987987 C11.9533713,15.9107808 12.0492284,15.9706914 12.2241674,16.0761342 C12.3967101,16.1839733 12.5213242,16.2558661 12.5908206,16.289416 C12.6627133,16.3253624 12.7681561,16.3708945 12.9071488,16.4212195 C13.0413486,16.4739408 13.1587735,16.4955087 13.2498376,16.4955087 C13.431966,16.4955087 13.6692121,16.3517231 13.9543868,16.0617556 C14.2395614,15.7717881 14.512754,15.4530635 14.7667751,15.1103746 C15.0231926,14.7700822 15.3035744,14.453754 15.6103169,14.16139 C15.9170594,13.8714225 16.1710805,13.7252406 16.3747767,13.7252406 C16.5185623,13.7252406 16.6623478,13.7611869 16.8133226,13.8330797 C16.9595046,13.9025761 17.1392365,14.0128116 17.3549148,14.16139 C17.5705932,14.3099684 17.6976037,14.3986362 17.738343,14.4297897 C17.9947605,14.583161 18.2655566,14.7413251 18.5579205,14.904282 C18.847888,15.0696354 19.1738019,15.2469709 19.5284729,15.4410814 C19.8879368,15.6351918 20.1635257,15.7861667 20.3576362,15.8987987 C21.0717711,16.2582625 21.459992,16.5290586 21.5199027,16.711187 C21.5510562,16.7854762 21.5678312,16.8885225 21.5678312,17.0347044" id="Fill-1" fill="#60C20F" mask="url(#mask-2)"></path>
                </g>
                <circle id="Oval-5-Copy-6" stroke="#60C20F" stroke-width="3" cx="27.4125841" cy="27.3828125" r="26.4207943"></circle>
            </g>
        </g>
    </g>
</svg>