<?xml version="1.0" encoding="UTF-8"?>
<svg width="49px" height="48px" viewBox="0 0 49 48" version="1.1" xmlns="http://www.w3.org/2000/svg" xmlns:xlink="http://www.w3.org/1999/xlink">
    <!-- Generator: Sketch 61.2 (89653) - https://sketch.com -->
    <title>Group 5</title>
    <desc>Created with Sketch.</desc>
    <g id="Symbols" stroke="none" stroke-width="1" fill="none" fill-rule="evenodd">
        <g id="footer" transform="translate(-1181.000000, -103.000000)">
            <g id="Group-5" transform="translate(1183.085911, 104.500000)">
                <ellipse id="Oval-5-Copy" stroke="#60C20F" stroke-width="3" cx="22.5213068" cy="22.6069973" rx="22.2435835" ry="22.0363451"></ellipse>
                <g id="Group-3" transform="translate(17.913156, 13.150476)" fill="#60C20F">
                    <path d="M8.89018699,0.0055267764 L8.89018699,3.03437663 C8.89018699,3.03437663 6.63672713,2.81183569 6.07232357,3.6676041 C5.76371174,4.13532225 5.94680164,5.50437532 5.91950136,6.48772995 L8.90858501,6.48772995 C8.65605744,7.63747583 8.47504473,8.41651612 8.28928415,9.41192383 L5.9028838,9.41192383 L5.9028838,18.8218486 L1.76214389,18.8218486 C1.76273737,15.920879 1.76155041,12.5366103 1.76214389,9.44867101 L8.9022644e-05,9.44867101 L8.9022644e-05,6.48772995 L1.74255891,6.48772995 C1.83187829,4.32287988 1.86541016,2.17802027 2.95089293,1.08589397 C4.17109664,-0.141755935 5.33491933,0.0055267764 8.89018699,0.0055267764" id="Fill-1"></path>
                </g>
            </g>
        </g>
    </g>
</svg>