<?xml version="1.0" encoding="utf-8"?>
<!-- Generator: Adobe Illustrator 24.0.1, SVG Export Plug-In . SVG Version: 6.00 Build 0)  -->
<svg version="1.1" id="Layer_1" xmlns="http://www.w3.org/2000/svg" xmlns:xlink="http://www.w3.org/1999/xlink" x="0px" y="0px"
	 viewBox="0 0 57 57" style="enable-background:new 0 0 57 57;" xml:space="preserve">
<style type="text/css">
	.st0{fill:none;stroke:#60C20F;stroke-width:3;}
	.st1{fill:#60C20F;}
</style>
<g>
	<circle class="st0" cx="28.5" cy="28.5" r="26.4"/>
	<path class="st1" d="M41.3,29h-2.5v8.9c0,0.3-0.1,0.7-0.3,1c-0.2,0.3-0.6,0.5-1.2,0.5h-5.9v-8.8h-5.9v8.8h-5.9
		c-0.6,0-1-0.2-1.2-0.5s-0.3-0.7-0.3-1V29h-2.5c-0.4,0-0.6-0.1-0.6-0.3c0-0.2,0.2-0.5,0.5-0.8l11.8-11.8c0.1-0.2,0.3-0.3,0.5-0.3
		c0.2-0.1,0.4-0.1,0.6-0.1c0.2,0,0.4,0,0.6,0.1c0.2,0.1,0.3,0.2,0.5,0.3l11.8,11.8c0.3,0.3,0.5,0.6,0.5,0.8S41.7,29,41.3,29z"/>
</g>
</svg>
