<?xml version="1.0" encoding="UTF-8"?>
<svg width="48px" height="48px" viewBox="0 0 48 48" version="1.1" xmlns="http://www.w3.org/2000/svg" xmlns:xlink="http://www.w3.org/1999/xlink">
    <!-- Generator: Sketch 61.2 (89653) - https://sketch.com -->
    <title>Group</title>
    <desc>Created with Sketch.</desc>
    <defs>
        <polygon id="path-1" points="0 -3.26923077e-05 20.9229788 -3.26923077e-05 20.9229788 16.9822472 0 16.9822472"></polygon>
    </defs>
    <g id="Symbols" stroke="none" stroke-width="1" fill="none" fill-rule="evenodd">
        <g id="footer" transform="translate(-1182.000000, -160.000000)">
            <g id="Group" transform="translate(1183.085911, 161.140625)">
                <g id="Group-7" stroke="#60C20F" stroke-width="3">
                    <ellipse id="Oval-5" cx="22.8701302" cy="22.6069973" rx="22.2435835" ry="22.0363451"></ellipse>
                </g>
                <g id="Group-3" transform="translate(11.882445, 14.000000)">
                    <mask id="mask-2" fill="white">
                        <use xlink:href="#path-1"></use>
                    </mask>
                    <g id="Clip-2"></g>
                    <path d="M14.2315173,0.000948076923 C15.8942481,-0.028475 16.7789019,0.577640385 17.624325,1.34787115 C18.3419212,1.28640962 19.2743058,0.885275 19.8235365,0.606736538 C20.0013827,0.509313462 20.1795558,0.411563462 20.3577288,0.314140385 C20.0438827,1.16217885 19.6185558,1.82550577 18.9650365,2.32929423 C18.8195558,2.44110192 18.6753827,2.59214038 18.4936135,2.66340962 L18.4936135,2.67387115 C19.4250173,2.66406346 20.1932865,2.24396731 20.9229788,2.01610192 L20.9229788,2.02656346 C20.539825,2.63594808 20.0209981,3.25383269 19.4675173,3.69714038 C19.2442288,3.87465962 19.0206135,4.05217885 18.797325,4.22969808 C18.8094212,5.21569808 18.7826135,6.15690962 18.5982288,6.98565962 C17.5262481,11.8041788 14.6859404,15.0750442 10.1891135,16.4765635 C8.57476731,16.9796981 5.96526731,17.1859865 4.11553654,16.7266596 C3.19786346,16.4991212 2.36944038,16.2421596 1.59169038,15.9021596 C1.159825,15.7131981 0.759671154,15.5088712 0.377171154,15.275775 C0.251305769,15.1989481 0.125767308,15.1224481 -9.80769231e-05,15.0459481 C0.417382692,15.0586981 0.905478846,15.1734481 1.37199808,15.0982558 C1.79405577,15.0302558 2.20761346,15.0475827 2.59697885,14.9625827 C3.56794038,14.7494288 4.43036346,14.4676212 5.17313269,14.0331404 C5.53340192,13.8226019 6.07969038,13.5751212 6.33567115,13.2710827 C5.85345962,13.2795827 5.41636346,13.167775 5.05805577,13.0415827 C3.66928654,12.5511981 2.86113269,11.6498712 2.33511346,10.2954288 C2.75586346,10.341525 3.96809423,10.4510442 4.25153654,10.2117365 C3.72192115,10.1829673 3.212575,9.87598654 2.84838269,9.64812115 C1.73161346,8.94915962 0.820478846,7.77681346 0.827344231,5.97317885 C0.973805769,6.04248654 1.12059423,6.11212115 1.26705577,6.18175577 C1.54755577,6.30010192 1.83295962,6.363525 2.16772885,6.43250577 C2.30928654,6.46160192 2.59174808,6.54496731 2.75422885,6.48448654 L2.73330577,6.48448654 C2.51688269,6.23275577 2.16511346,6.06537115 1.94770962,5.79565962 C1.23109423,4.90479423 0.559594231,3.53400577 0.984267308,1.901025 C1.09215192,1.48714038 1.26313269,1.12164038 1.44522885,0.784255769 C1.45209423,0.787525 1.45928654,0.791121154 1.46615192,0.794717308 C1.54951731,0.969294231 1.73553654,1.09744808 1.85355577,1.24358269 C2.21938269,1.69669808 2.67119038,2.10535192 3.13117115,2.46496731 C4.69876731,3.69092885 6.11042115,4.44415962 8.37763269,5.00221731 C8.95269038,5.14344808 9.61765192,5.25165962 10.3045173,5.25264038 C10.1113058,4.69098654 10.1734212,3.78148654 10.3254404,3.23748654 C10.7076135,1.87029423 11.5373442,0.884294231 12.7548058,0.355986538 C13.0460942,0.229794231 13.3690942,0.137601923 13.7077865,0.0633903846 C13.8823635,0.0427942308 14.0569404,0.0218711538 14.2315173,0.000948076923" id="Fill-1" fill="#60C20F" mask="url(#mask-2)"></path>
                </g>
            </g>
        </g>
    </g>
</svg>