<?xml version="1.0" encoding="UTF-8"?>
<svg width="41px" height="41px" viewBox="0 0 41 41" version="1.1" xmlns="http://www.w3.org/2000/svg" xmlns:xlink="http://www.w3.org/1999/xlink">
    <!-- Generator: Sketch 61.2 (89653) - https://sketch.com -->
    <title>Group 10</title>
    <desc>Created with Sketch.</desc>
    <g id="Page-1" stroke="none" stroke-width="1" fill="none" fill-rule="evenodd">
        <g id="Mobile-Homepage" transform="translate(-227.000000, -12.000000)">
            <g id="Group-10" transform="translate(227.000000, 12.570312)">
                <circle id="Oval-Copy-2" fill="#FFFFFF" cx="20.075431" cy="20.075431" r="20.075431"></circle>
                <circle id="Oval-5-Copy-8" stroke="#60C20F" stroke-width="3" cx="20.075431" cy="20.075431" r="14.6637931"></circle>
                <path d="M21.0444513,15.6332138 L18.2326885,15.6332138 L18.2326885,14.6959596 C18.2326885,13.9196787 18.8622891,13.2900782 19.6385699,13.2900782 C20.4148508,13.2900782 21.0444513,13.9196787 21.0444513,14.6959596 L21.0444513,15.6332138 Z M19.7979032,11.4155696 C17.9882995,11.327702 16.4500309,12.7232736 16.3621633,14.532643 C16.3593516,14.5872381 16.35818,14.6415988 16.35818,14.6959596 L16.35818,15.6332138 L14.0150443,15.6332138 C13.7563621,15.6332138 13.5464172,15.8431588 13.5464172,16.101841 L13.5464172,24.0685023 C13.5464172,25.3623818 14.595439,26.4116379 15.8895529,26.4116379 L23.387587,26.4116379 C24.6814665,26.4116379 25.7307227,25.3623818 25.7307227,24.0685023 L25.7307227,16.101841 C25.7307227,15.8431588 25.5207777,15.6332138 25.2620955,15.6332138 L22.9189599,15.6332138 L22.9189599,14.789685 C22.9402824,13.0145254 21.5693137,11.5324921 19.7979032,11.4155696 L19.7979032,11.4155696 Z" id="Fill-1" fill="#60C20F"></path>
            </g>
        </g>
    </g>
</svg>