<?xml version="1.0" encoding="UTF-8"?>
<svg width="48px" height="48px" viewBox="0 0 48 48" version="1.1" xmlns="http://www.w3.org/2000/svg" xmlns:xlink="http://www.w3.org/1999/xlink">
    <!-- Generator: Sketch 61.2 (89653) - https://sketch.com -->
    <title>Group 2</title>
    <desc>Created with Sketch.</desc>
    <defs>
        <polygon id="path-1" points="0 6.33988294e-05 15.6739893 6.33988294e-05 15.6739893 20.333019 0 20.333019"></polygon>
    </defs>
    <g id="Symbols" stroke="none" stroke-width="1" fill="none" fill-rule="evenodd">
        <g id="footer" transform="translate(-1290.000000, -102.000000)">
            <g id="Group-2" transform="translate(1291.788106, 103.900493)">
                <g id="Group-6-Copy">
                    <ellipse id="Oval-5-Copy-2" stroke="#60C20F" stroke-width="3" cx="22.0374113" cy="22.1369065" rx="21.7690717" ry="21.5662543"></ellipse>
                    <g id="Group-3" transform="translate(14.137725, 12.172215)">
                        <mask id="mask-2" fill="white">
                            <use xlink:href="#path-1"></use>
                        </mask>
                        <g id="Clip-2"></g>
                    </g>
                </g>
                <path d="M13.3007954,29.0995066 L17.2915785,29.0995066 L17.2915785,17.7748161 L13.3007954,17.7748161 L13.3007954,29.0995066 Z M15.3037146,16.0955869 C14.0741943,16.0955869 13.0783108,15.202024 13.0783108,14.0988014 C13.0783108,12.9941847 14.0741943,12.0995066 15.3037146,12.0995066 C16.5321197,12.0995066 17.5280033,12.9941847 17.5280033,14.0988014 C17.5280033,15.202024 16.5321197,16.0955869 15.3037146,16.0955869 L15.3037146,16.0955869 Z M26.9484707,29.0995066 L26.9484707,22.9145455 C26.9484707,21.6468293 26.5815662,20.3766037 25.0882985,20.3766037 C23.5950308,20.3766037 22.9702337,21.6468293 22.9702337,22.9454926 L22.9702337,29.0995066 L18.9858631,29.0995066 L18.9858631,17.7748161 L22.9702337,17.7748161 L22.9702337,19.2995886 C24.018811,17.9674689 24.9299385,17.4176698 26.5815662,17.4176698 C28.2345879,17.4176698 30.9216892,18.1888383 30.9216892,22.6613926 L30.9216892,29.0995066 L26.9484707,29.0995066 Z" id="Fill-1" fill="#60C20F"></path>
            </g>
        </g>
    </g>
</svg>