<?xml version="1.0" encoding="UTF-8" standalone="no"?>
<!DOCTYPE svg PUBLIC "-//W3C//DTD SVG 1.1//EN" "http://www.w3.org/Graphics/SVG/1.1/DTD/svg11.dtd">
<svg width="100%" height="100%" viewBox="0 0 49 48" version="1.1" xmlns="http://www.w3.org/2000/svg" xmlns:xlink="http://www.w3.org/1999/xlink" xml:space="preserve" xmlns:serif="http://www.serif.com/" style="fill-rule:evenodd;clip-rule:evenodd;">
    <g transform="matrix(0.416667,0,0,0.416667,14,14)">
        <g transform="matrix(2.4,0,0,2.4,-28.5936,-30)">
            <ellipse cx="22.521" cy="22.607" rx="22.244" ry="22.036" style="fill:none;stroke:rgb(96,194,15);stroke-width:3px;"/>
        </g>
        <path d="M24,4.324C30.408,4.324 31.167,4.348 33.698,4.464C36.429,4.589 38.964,5.136 40.914,7.086C42.864,9.036 43.411,11.571 43.536,14.302C43.651,16.833 43.676,17.592 43.676,24C43.676,30.408 43.652,31.167 43.536,33.698C43.411,36.429 42.864,38.964 40.914,40.914C38.964,42.864 36.429,43.411 33.698,43.536C31.168,43.651 30.409,43.676 24,43.676C17.591,43.676 16.832,43.652 14.302,43.536C11.571,43.411 9.036,42.864 7.086,40.914C5.136,38.964 4.589,36.429 4.464,33.698C4.349,31.167 4.324,30.408 4.324,24C4.324,17.592 4.348,16.833 4.464,14.302C4.589,11.571 5.136,9.036 7.086,7.086C9.036,5.136 11.571,4.589 14.302,4.464C16.833,4.349 17.592,4.324 24,4.324M24,0C17.482,0 16.665,0.028 14.105,0.144C10.205,0.322 6.779,1.277 4.028,4.028C1.278,6.778 0.322,10.203 0.144,14.105C0.028,16.665 0,17.482 0,24C0,30.518 0.028,31.335 0.144,33.895C0.322,37.795 1.277,41.221 4.028,43.972C6.778,46.722 10.203,47.678 14.105,47.856C16.665,47.972 17.482,48 24,48C30.518,48 31.335,47.972 33.895,47.856C37.794,47.678 41.221,46.723 43.972,43.972C46.722,41.222 47.678,37.797 47.856,33.895C47.972,31.335 48,30.518 48,24C48,17.482 47.972,16.665 47.856,14.105C47.678,10.205 46.723,6.779 43.972,4.028C41.222,1.278 37.797,0.322 33.895,0.144C31.335,0.028 30.518,0 24,0Z" style="fill:rgb(96,194,15);fill-rule:nonzero;"/>
        <path d="M24,11.676C17.193,11.676 11.676,17.194 11.676,24C11.676,30.806 17.193,36.324 24,36.324C30.807,36.324 36.324,30.807 36.324,24C36.324,17.193 30.807,11.676 24,11.676ZM24,32C19.582,32 16,28.418 16,24C16,19.582 19.582,16 24,16C28.418,16 32,19.582 32,24C32,28.418 28.418,32 24,32Z" style="fill:rgb(96,194,15);fill-rule:nonzero;"/>
        <circle cx="36.811" cy="11.189" r="2.88" style="fill:rgb(96,194,15);"/>
    </g>
</svg>
