<?xml version="1.0" encoding="UTF-8"?>
<svg width="47px" height="47px" viewBox="0 0 47 47" version="1.1" xmlns="http://www.w3.org/2000/svg" xmlns:xlink="http://www.w3.org/1999/xlink">
    <!-- Generator: Sketch 61.2 (89653) - https://sketch.com -->
    <title>Group 6</title>
    <desc>Created with Sketch.</desc>
    <defs>
        <polygon id="path-1" points="0 6.33988294e-05 15.6739893 6.33988294e-05 15.6739893 20.333019 0 20.333019"></polygon>
    </defs>
    <g id="Symbols" stroke="none" stroke-width="1" fill="none" fill-rule="evenodd">
        <g id="footer" transform="translate(-1237.000000, -103.000000)">
            <g id="Group-6" transform="translate(1238.500000, 104.500000)">
                <ellipse id="Oval-5-Copy-2" stroke="#60C20F" stroke-width="3" cx="22.0374113" cy="22.1369065" rx="21.7690717" ry="21.5662543"></ellipse>
                <g id="Group-3" transform="translate(14.137725, 12.172215)">
                    <mask id="mask-2" fill="white">
                        <use xlink:href="#path-1"></use>
                    </mask>
                    <g id="Clip-2"></g>
                    <path d="M6.52109627,13.2018235 C6.35406918,13.8621224 6.1854422,14.5544376 6.0107357,15.2305861 C5.838589,15.8978588 5.68756066,16.5749583 5.43670004,17.187708 C5.02137212,18.2033572 4.49405285,19.1844541 3.80226629,19.9788414 C3.34246181,20.5072707 3.44005427,20.2958356 3.30150497,20.2676231 C3.19591313,20.2460675 3.18695382,20.1433614 3.16615543,19.9950081 C3.05352413,19.187624 3.1303182,18.2547103 3.17223496,17.348424 C3.21991128,16.3150231 3.43909435,15.4556519 3.6429186,14.5972318 C4.03040867,12.962176 4.39966015,11.3591366 4.79098992,9.71298596 C4.81722789,9.60298899 4.8869825,9.42230233 4.86266438,9.35985448 C4.68571805,8.90274892 4.57052695,8.4925585 4.51997085,8.01231236 C4.46141538,7.46137654 4.50621192,6.94721203 4.63164223,6.4723548 C4.8521052,5.63453927 5.36150585,4.890871 6.14640522,4.619841 C6.64524668,4.44771318 7.19816397,4.52569374 7.53381805,4.72413208 C7.87971133,4.9285933 8.11681301,5.25256132 8.22752446,5.71061786 C8.34559534,6.19910584 8.25888204,6.78174108 8.16384938,7.21063417 C7.95010589,8.17556435 7.66948757,8.90116395 7.41414729,9.83312675 C7.28775705,10.2953042 7.14440813,10.7698445 7.26247901,11.2687932 C7.3712706,11.7268498 7.61221199,12.042576 7.94082661,12.2793706 C8.28096033,12.5244071 8.68412919,12.6597636 9.24024623,12.6404269 C10.2222504,12.6058746 10.9047577,11.983932 11.3613624,11.3971759 C12.090906,10.4588732 12.5331119,9.19153059 12.7007789,7.68358943 C12.7545348,7.1979544 12.7942117,6.63877672 12.7564546,6.0878409 C12.68702,5.07028968 12.3654448,4.2518108 11.8557242,3.61750551 C11.3703217,3.01331466 10.6826948,2.53243454 9.84627942,2.26172154 C9.01658351,1.99386149 7.86819222,1.90415214 6.84779104,2.07723095 C4.9944942,2.39200614 3.68707519,3.43586786 2.91689468,4.87660626 C2.51372583,5.63136932 2.24750639,6.49898231 2.24750639,7.57961535 C2.24750639,8.41204198 2.45485037,9.05744207 2.78954452,9.56019478 C2.89577631,9.71995983 3.05192425,9.85151241 3.15623619,10.033467 C3.3037448,10.2918173 3.13351795,10.6763312 3.06056359,10.956237 C2.97257038,11.2932018 2.9632911,11.7582322 2.56652175,11.7661571 C2.40205445,11.76901 2.19535042,11.6498202 2.0558412,11.5734246 C1.0124018,11.0022012 0.378210785,9.96214336 0.118390855,8.61396726 C-0.0396769351,7.79517137 -0.0393569599,6.83943402 0.118390855,6.04789963 C0.27069909,5.28204177 0.554197191,4.57577881 0.868092944,4.0023364 C1.51924265,2.81170639 2.47340894,1.85945597 3.63459924,1.17886953 C4.52765026,0.656146185 5.53493245,0.289383957 6.76043779,0.112501223 C7.16712637,0.0538573056 7.58789387,0.0294487563 8.04417862,0.00821014841 C9.37847555,-0.0542376986 10.5918218,0.24532177 11.5047113,0.649806302 C12.4691168,1.07711441 13.2380174,1.64548492 13.8885272,2.35016291 C14.5588754,3.07512852 15.0468377,3.91928394 15.3559338,4.97265549 C15.5168814,5.52137236 15.6739893,6.10812852 15.6739893,6.78554501 C15.6739893,7.46486347 15.5290405,8.06334842 15.4279283,8.66215037 C15.0487576,10.903299 13.9726807,12.7361591 12.3577654,13.7790699 C11.9664356,14.0323482 11.4925523,14.2653389 10.9543538,14.420666 C10.420955,14.5747252 9.81236204,14.6901111 9.16057239,14.6454149 C8.5273413,14.6019867 8.00962129,14.4317608 7.57381496,14.1879923 C7.14152835,13.9464428 6.77867638,13.6497363 6.52109627,13.2018235" id="Fill-1" fill="#60C20F" mask="url(#mask-2)"></path>
                </g>
            </g>
        </g>
    </g>
</svg>