<?xml version="1.0" encoding="UTF-8"?>
<svg width="24px" height="23px" viewBox="0 0 24 23" version="1.1" xmlns="http://www.w3.org/2000/svg" xmlns:xlink="http://www.w3.org/1999/xlink">
    <!-- Generator: Sketch 61.2 (89653) - https://sketch.com -->
    <title>Group 3 Copy</title>
    <desc>Created with Sketch.</desc>
    <defs>
        <polygon id="path-1" points="0 0 22.7164781 0 22.7164781 22.7164426 0 22.7164426"></polygon>
    </defs>
    <g id="Page-1" stroke="none" stroke-width="1" fill="none" fill-rule="evenodd">
        <g id="Mobile-Menu-Expanded" transform="translate(-273.000000, -76.000000)">
            <g id="Group-3-Copy" transform="translate(273.417431, 76.048841)">
                <mask id="mask-2" fill="white">
                    <use xlink:href="#path-1"></use>
                </mask>
                <g id="Clip-2"></g>
                <path d="M8.51863493,2.12957 C4.99011595,2.12957 2.12960549,4.99008046 2.12960549,8.51859944 C2.12960549,12.0471184 4.99011595,14.9076289 8.51863493,14.9076289 C12.0471539,14.9076289 14.9076644,12.0471184 14.9076644,8.51859944 C14.9076644,4.99008046 12.0471539,2.12957 8.51863493,2.12957 L8.51863493,2.12957 Z M22.0928379,19.0810849 C22.4779544,19.4662014 22.7164781,19.9986205 22.7164781,20.5867662 C22.7164781,21.7630575 21.762738,22.7164426 20.5868017,22.7164426 C19.9990109,22.7164426 19.4662369,22.4782738 19.0811204,22.0928024 L12.8393936,15.8510756 C11.5715262,16.6000118 10.09779,17.0373054 8.51863493,17.0373054 C3.81382464,17.0373054 -7.0989216e-05,13.2234097 -7.0989216e-05,8.51859944 C-7.0989216e-05,3.81378915 3.81382464,-0.000106483824 8.51863493,-0.000106483824 C13.2234452,-0.000106483824 17.0373409,3.81378915 17.0373409,8.51859944 C17.0373409,10.0977545 16.6000473,11.5714907 15.8511111,12.8393581 L22.0928379,19.0810849 Z" id="Fill-1" fill="#7AC042" mask="url(#mask-2)"></path>
            </g>
        </g>
    </g>
</svg>