<svg width="57px" height="57px" viewBox="0 0 57 57" xmlns="http://www.w3.org/2000/svg" fill-rule="evenodd" clip-rule="evenodd"><g transform="translate(1.178 1.061)"><circle cx="27.413" cy="27.383" r="26.421" fill="none" stroke="#60c20f" stroke-width="3"/><path d="M29.6 22.129h-4.555V20.61a2.278 2.278 0 014.554 0v1.519zm-2.02-6.832a5.314 5.314 0 00-5.571 5.313v1.519h-3.795a.76.76 0 00-.76.76v12.903c0 2.096 1.7 3.795 3.795 3.795h12.146c2.096 0 3.796-1.7 3.796-3.795V22.888a.76.76 0 00-.76-.76h-3.795v-1.366a5.414 5.414 0 00-5.056-5.465z" fill="#60c20f"/></g></svg>